HIERARCHY
ROOT Hips
{
	OFFSET 0.000000 103.266502 0.000000
	CHANNELS 6 Xposition Yposition Zposition Xrotation Yrotation Zrotation 
	JOINT Spine
	{
		OFFSET -0.002400 12.777504 0.315300
		CHANNELS 3 Xrotation Yrotation Zrotation
		JOINT Spine1
		{
			OFFSET -0.002067 5.816869 0.032633
			CHANNELS 3 Xrotation Yrotation Zrotation
			JOINT Spine1_split
			{
				OFFSET -0.002067 5.816869 0.032633
				CHANNELS 3 Xrotation Yrotation Zrotation
				JOINT Spine2
				{
					OFFSET -0.002067 5.816869 0.032633
					CHANNELS 3 Xrotation Yrotation Zrotation
					JOINT Neck
					{
						OFFSET -0.003700 21.199493 -0.826900
						CHANNELS 3 Xrotation Yrotation Zrotation
						JOINT Head
						{
							OFFSET 0.000000 20.442200 4.834800
							CHANNELS 3 Xrotation Yrotation Zrotation
							JOINT HeadTop_End
							{
								OFFSET 0.000000 34.668396 4.968400
								CHANNELS 3 Xrotation Yrotation Zrotation
								End Site
								{
									OFFSET 0.000000 0.000000 0.000000
								}
							}
						}
					}
					JOINT LeftShoulder
					{
						OFFSET 3.288150 8.794197 -1.372250
						CHANNELS 3 Xrotation Yrotation Zrotation
						JOINT LeftShoulder_split
						{
							OFFSET 3.288150 8.794197 -1.372250
							CHANNELS 3 Xrotation Yrotation Zrotation
							JOINT LeftArm
							{
								OFFSET 11.953299 -2.279007 -0.146200
								CHANNELS 3 Xrotation Yrotation Zrotation
								JOINT LeftForeArm
								{
									OFFSET 18.448900 0.000000 0.000000
									CHANNELS 3 Xrotation Yrotation Zrotation
									JOINT LeftHand
									{
										OFFSET 29.527798 0.000000 0.000000
										CHANNELS 3 Xrotation Yrotation Zrotation
										JOINT LeftHandThumb1
										{
											OFFSET 10.739754 -2.369614 9.225399
											CHANNELS 3 Xrotation Yrotation Zrotation
											JOINT LeftHandThumb2
											{
												OFFSET 4.926170 -2.844131 2.844125
												CHANNELS 3 Xrotation Yrotation Zrotation
												JOINT LeftHandThumb3
												{
													OFFSET 4.614891 -2.664413 2.664409
													CHANNELS 3 Xrotation Yrotation Zrotation
													JOINT LeftHandThumb4
													{
														OFFSET 4.432465 -2.559082 2.559083
														CHANNELS 3 Xrotation Yrotation Zrotation
														End Site
														{
															OFFSET 0.000000 0.000000 0.000000
														}
													}
												}
											}
										}
										JOINT LeftHandIndex1
										{
											OFFSET 26.467674 0.187653 6.405298
											CHANNELS 3 Xrotation Yrotation Zrotation
											JOINT LeftHandIndex2
											{
												OFFSET 8.792900 0.000000 0.000000
												CHANNELS 3 Xrotation Yrotation Zrotation
												JOINT LeftHandIndex3
												{
													OFFSET 10.075203 0.000000 0.000000
													CHANNELS 3 Xrotation Yrotation Zrotation
													End Site
													{
														OFFSET 0.000000 0.000000 0.000000
													}
												}
											}
										}
										JOINT LeftHandMiddle1
										{
											OFFSET 25.764404 0.000000 0.000000
											CHANNELS 3 Xrotation Yrotation Zrotation
											JOINT LeftHandMiddle2
											{
												OFFSET 9.393974 0.000000 0.000000
												CHANNELS 3 Xrotation Yrotation Zrotation
												JOINT LeftHandMiddle3
												{
													OFFSET 10.771950 0.000000 0.000000
													CHANNELS 3 Xrotation Yrotation Zrotation
													End Site
													{
														OFFSET 0.000000 0.000000 0.000000
													}
												}
											}
										}
										JOINT LeftHandRing1
										{
											OFFSET 24.660927 0.144547 -6.225808
											CHANNELS 3 Xrotation Yrotation Zrotation
											JOINT LeftHandRing2
											{
												OFFSET 9.393799 0.000000 0.000000
												CHANNELS 3 Xrotation Yrotation Zrotation
												JOINT LeftHandRing3
												{
													OFFSET 9.928497 0.000000 0.000000
													CHANNELS 3 Xrotation Yrotation Zrotation
													End Site
													{
														OFFSET 0.000000 0.000000 0.000000
													}
												}
											}
										}
										JOINT LeftHandPinky1
										{
											OFFSET 23.655350 0.125290 -12.815412
											CHANNELS 3 Xrotation Yrotation Zrotation
											JOINT LeftHandPinky2
											{
												OFFSET 8.425102 0.000000 0.000000
												CHANNELS 3 Xrotation Yrotation Zrotation
												JOINT LeftHandPinky3
												{
													OFFSET 8.147003 0.000000 0.000000
													CHANNELS 3 Xrotation Yrotation Zrotation
													End Site
													{
														OFFSET 0.000000 0.000000 0.000000
													}
												}
											}
										}
									}
								}
							}
						}
					}
					JOINT RightShoulder
					{
						OFFSET -3.249400 8.794197 -1.372250
						CHANNELS 3 Xrotation Yrotation Zrotation
						JOINT RightShoulder_split
						{
							OFFSET -3.249400 8.794197 -1.372250
							CHANNELS 3 Xrotation Yrotation Zrotation
							JOINT RightArm
							{
								OFFSET -11.953299 -2.279007 -0.146200
								CHANNELS 3 Xrotation Yrotation Zrotation
								JOINT RightForeArm
								{
									OFFSET -18.448900 0.000000 0.000000
									CHANNELS 3 Xrotation Yrotation Zrotation
									JOINT RightHand
									{
										OFFSET -29.527802 0.000000 0.000000
										CHANNELS 3 Xrotation Yrotation Zrotation
										JOINT RightHandThumb1
										{
											OFFSET -10.739754 -2.369614 9.225399
											CHANNELS 3 Xrotation Yrotation Zrotation
											JOINT RightHandThumb2
											{
												OFFSET -4.926170 -2.844131 2.844125
												CHANNELS 3 Xrotation Yrotation Zrotation
												JOINT RightHandThumb3
												{
													OFFSET -4.614891 -2.664413 2.664409
													CHANNELS 3 Xrotation Yrotation Zrotation
													JOINT RightHandThumb4
													{
														OFFSET -4.432465 -2.559082 2.559083
														CHANNELS 3 Xrotation Yrotation Zrotation
														End Site
														{
															OFFSET 0.000000 0.000000 0.000000
														}
													}
												}
											}
										}
										JOINT RightHandIndex1
										{
											OFFSET -26.467674 0.187653 6.405298
											CHANNELS 3 Xrotation Yrotation Zrotation
											JOINT RightHandIndex2
											{
												OFFSET -8.792900 0.000000 0.000000
												CHANNELS 3 Xrotation Yrotation Zrotation
												JOINT RightHandIndex3
												{
													OFFSET -10.075203 0.000000 0.000000
													CHANNELS 3 Xrotation Yrotation Zrotation
													End Site
													{
														OFFSET 0.000000 0.000000 0.000000
													}
												}
											}
										}
										JOINT RightHandMiddle1
										{
											OFFSET -25.764404 0.000000 0.000000
											CHANNELS 3 Xrotation Yrotation Zrotation
											JOINT RightHandMiddle2
											{
												OFFSET -9.393974 0.000000 0.000000
												CHANNELS 3 Xrotation Yrotation Zrotation
												JOINT RightHandMiddle3
												{
													OFFSET -10.771950 0.000000 0.000000
													CHANNELS 3 Xrotation Yrotation Zrotation
													End Site
													{
														OFFSET 0.000000 0.000000 0.000000
													}
												}
											}
										}
										JOINT RightHandRing1
										{
											OFFSET -24.660927 0.144547 -6.225808
											CHANNELS 3 Xrotation Yrotation Zrotation
											JOINT RightHandRing2
											{
												OFFSET -9.393799 0.000000 0.000000
												CHANNELS 3 Xrotation Yrotation Zrotation
												JOINT RightHandRing3
												{
													OFFSET -9.928497 0.000000 0.000000
													CHANNELS 3 Xrotation Yrotation Zrotation
													End Site
													{
														OFFSET 0.000000 0.000000 0.000000
													}
												}
											}
										}
										JOINT RightHandPinky1
										{
											OFFSET -23.655350 0.125290 -12.815412
											CHANNELS 3 Xrotation Yrotation Zrotation
											JOINT RightHandPinky2
											{
												OFFSET -8.425102 0.000000 0.000000
												CHANNELS 3 Xrotation Yrotation Zrotation
												JOINT RightHandPinky3
												{
													OFFSET -8.147003 0.000000 0.000000
													CHANNELS 3 Xrotation Yrotation Zrotation
													End Site
													{
														OFFSET 0.000000 0.000000 0.000000
													}
												}
											}
										}
									}
								}
							}
						}
					}
				}
			}
		}
	}
	JOINT LeftUpLeg
	{
		OFFSET 11.394100 -6.187798 -0.413800
		CHANNELS 3 Xrotation Yrotation Zrotation
		JOINT LeftLeg
		{
			OFFSET 0.430247 -32.302673 3.732800
			CHANNELS 3 Xrotation Yrotation Zrotation
			JOINT LeftFoot
			{
				OFFSET -0.430247 -48.264931 -6.423300
				CHANNELS 3 Xrotation Yrotation Zrotation
				JOINT LeftToeBase
				{
					OFFSET 4.230900 -16.068199 23.438400
					CHANNELS 3 Xrotation Yrotation Zrotation
					JOINT LeftToe_End
					{
						OFFSET 4.510700 0.695400 19.974600
						CHANNELS 3 Xrotation Yrotation Zrotation
						End Site
						{
							OFFSET 0.000000 0.000000 0.000000
						}
					}
				}
			}
		}
	}
	JOINT RightUpLeg
	{
		OFFSET -11.333700 -6.187798 -0.413800
		CHANNELS 3 Xrotation Yrotation Zrotation
		JOINT RightLeg
		{
			OFFSET -0.430392 -32.302628 3.733000
			CHANNELS 3 Xrotation Yrotation Zrotation
			JOINT RightFoot
			{
				OFFSET 0.430392 -48.264973 -6.423500
				CHANNELS 3 Xrotation Yrotation Zrotation
				JOINT RightToeBase
				{
					OFFSET -4.230900 -16.068199 23.438400
					CHANNELS 3 Xrotation Yrotation Zrotation
					JOINT RightToe_End
					{
						OFFSET -4.510700 0.695400 19.974600
						CHANNELS 3 Xrotation Yrotation Zrotation
						End Site
						{
							OFFSET 0.000000 0.000000 0.000000
						}
					}
				}
			}
		}
	}
}
MOTION
Frames: 6
Frame Time: 0.016667
-0.037054 100.438354 0.478023 1.892546 0.274499 -0.214006 2.071096 0.290220 0.888059 3.430438 -0.015269 0.185037 0.000000 0.000000 0.000000 3.430499 0.005499 0.178976 -3.527215 -0.012947 -0.020364 -2.723221 -0.263049 0.289011 0.000000 0.000000 0.000000 0.742837 8.952359 -13.053723 0.000000 0.000000 0.000000 10.740852 -6.252036 -54.033852 0.000008 -33.005899 0.000003 3.135486 -1.542053 -4.245108 -3.935401 -5.157145 8.901476 21.369755 38.859132 0.033496 -0.468177 -2.423303 17.081246 0.000003 -0.000001 0.000000 1.240181 5.550746 -31.144645 2.582844 4.855851 -55.996992 -0.000000 -0.000000 -0.000002 2.320325 7.123385 -41.324711 3.978841 5.544425 -71.308029 0.000000 -0.000002 0.000000 2.315929 7.119641 -41.286062 3.978842 5.544428 -71.308022 0.000000 -0.000001 0.000001 2.340563 7.146619 -41.312129 3.983160 5.545880 -71.352746 0.000000 0.000002 0.000000 1.078070 -8.352865 11.371667 0.000000 0.000000 0.000000 3.407874 18.890954 61.317313 0.000003 23.538782 0.000004 1.182686 -2.960227 -1.406667 -5.113516 0.222614 -17.981451 16.974243 -29.891271 7.722262 -6.335552 -28.130464 -4.848447 0.000002 -0.000000 0.000001 0.293261 -3.768023 14.855194 3.775967 -4.573223 79.081296 -0.000000 0.000001 -0.000001 1.476682 -5.897275 31.989652 4.654527 -4.657166 89.967368 -0.000000 -0.000002 0.000000 1.427406 -5.817119 32.033089 4.654583 -4.657172 89.968071 -0.000000 -0.000001 -0.000001 1.424024 -5.850168 32.030596 4.654586 -4.657173 89.968167 -0.000000 -0.000001 0.000000 -7.789937 -5.087878 9.882885 13.517292 0.085487 -1.545160 -5.244457 14.457443 -8.910825 -0.022027 0.000001 -0.000000 -0.000000 -0.000001 -0.000000 -7.260000 -4.831170 -8.971439 14.459763 0.206568 -0.300318 -7.620177 -11.399125 8.061565 0.109673 -0.000002 -0.000002 0.000000 0.000002 -0.000000 
0.561904 100.329552 0.492949 1.971307 0.168584 -0.269942 2.228324 0.159092 0.922096 3.366060 -0.047926 0.178463 0.000000 0.000000 0.000000 3.366262 -0.027679 0.173012 -3.461164 -0.005422 -0.020364 -2.503164 -0.228412 0.394053 0.000000 -0.000000 0.000000 0.736156 8.634892 -13.051692 0.000000 0.000000 0.000000 10.465391 -6.468717 -54.238570 -0.000000 -32.925419 0.000003 3.835488 -1.562228 -4.453619 -3.935398 -5.157146 8.901475 21.369775 38.859122 0.033469 -0.468204 -2.423308 17.081253 0.000002 -0.000000 0.000001 1.240177 5.550742 -31.144665 2.582854 4.855855 -55.996995 -0.000000 -0.000000 -0.000000 2.320331 7.123384 -41.324711 3.979599 5.544681 -71.315924 -0.000000 0.000000 0.000000 2.324900 7.126364 -41.393822 3.982368 5.545615 -71.344577 0.000000 -0.000001 0.000000 2.340565 7.146610 -41.312133 3.983157 5.545882 -71.352746 -0.000000 0.000000 0.000000 1.102347 -8.042775 11.607332 0.000000 0.000000 0.000000 3.214943 18.780580 60.984369 0.000009 23.113683 0.000002 2.062543 -2.669417 -0.892127 -5.113514 0.222623 -17.981438 16.974246 -29.891285 7.722236 -6.335512 -28.130457 -4.848404 0.000002 0.000004 -0.000002 0.293271 -3.768011 14.855190 3.760201 -4.570163 78.883535 0.000000 0.000001 0.000001 1.476689 -5.897266 31.989679 4.659786 -4.657168 90.032289 -0.000000 0.000001 -0.000000 1.436521 -5.825504 32.180522 4.654580 -4.657173 89.968037 0.000000 0.000001 -0.000000 1.432360 -5.863710 32.225505 4.654591 -4.657170 89.968187 0.000000 0.000001 0.000002 -8.675372 -4.761161 9.666055 14.688125 -0.126162 -1.621902 -5.889886 13.452006 -8.499715 -0.014345 0.000003 -0.000002 -0.000000 -0.000000 0.000000 -7.408619 -4.747077 -9.353761 14.491406 0.309648 -0.293067 -7.481223 -11.419790 8.486429 0.103733 -0.000009 -0.000004 -0.000000 -0.000000 -0.000000 
1.164057 100.219505 0.479939 2.047156 0.066764 -0.318890 2.391707 0.028662 0.944900 3.299832 -0.080446 0.171142 0.000000 0.000000 0.000000 3.300180 -0.060740 0.166296 -3.396152 0.002399 -0.020364 -2.286795 -0.182576 0.481419 -0.000000 0.000000 -0.000000 0.729725 8.312046 -13.050094 0.000000 0.000000 0.000000 10.192955 -6.689420 -54.453045 0.000003 -32.826545 -0.000005 4.533531 -1.587737 -4.670878 -3.935396 -5.157136 8.901494 21.369775 38.859108 0.033473 -0.468192 -2.423304 17.081265 0.000002 -0.000001 -0.000002 1.240180 5.550745 -31.144665 2.582850 4.855855 -55.996985 -0.000000 -0.000001 -0.000002 2.320326 7.123391 -41.324711 3.980452 5.544968 -71.324729 0.000000 -0.000002 0.000000 2.334063 7.133215 -41.503754 3.985974 5.546827 -71.381815 0.000000 -0.000002 -0.000000 2.340566 7.146613 -41.312133 3.983156 5.545878 -71.352746 0.000000 -0.000001 0.000000 1.124656 -7.724697 11.847045 0.000000 0.000000 0.000000 3.010277 18.678486 60.639772 0.000000 22.673023 -0.000002 2.953364 -2.354781 -0.380946 -5.113527 0.222621 -17.981421 16.974231 -29.891274 7.722227 -6.335531 -28.130464 -4.848447 -0.000003 -0.000000 -0.000003 0.293262 -3.768016 14.855207 3.744293 -4.567021 78.683800 0.000000 -0.000001 0.000000 1.476677 -5.897266 31.989676 4.665316 -4.657164 90.100242 0.000000 -0.000001 -0.000001 1.445847 -5.834052 32.330933 4.654582 -4.657164 89.968085 0.000001 -0.000001 -0.000002 1.440913 -5.877518 32.424267 4.654589 -4.657164 89.968194 -0.000000 0.000002 0.000000 -9.549805 -4.408307 9.471830 15.792058 -0.381255 -1.712750 -6.476385 12.358241 -8.085754 -0.007610 -0.000002 0.000002 -0.000000 0.000000 0.000000 -7.582891 -4.663994 -9.745542 14.533398 0.408330 -0.286861 -7.325126 -11.432997 8.907130 0.092229 -0.000007 0.000001 -0.000000 0.000000 0.000000 
1.767455 100.103905 0.443541 2.120606 -0.032149 -0.355749 2.560060 -0.100973 0.952131 3.232089 -0.112856 0.163210 0.000000 0.000000 0.000000 3.232567 -0.093704 0.158966 -3.332028 0.010478 -0.020364 -2.078846 -0.125606 0.557600 -0.000001 0.000000 0.000000 0.723533 7.984865 -13.048747 0.000000 0.000000 0.000000 9.926438 -6.917190 -54.675272 0.000001 -32.712863 -0.000009 5.229925 -1.618788 -4.895264 -3.935397 -5.157152 8.901471 21.369768 38.859122 0.033494 -0.468182 -2.423304 17.081243 -0.000000 -0.000001 -0.000002 1.240179 5.550738 -31.144652 2.582849 4.855844 -55.997022 0.000001 -0.000000 -0.000002 2.320319 7.123376 -41.324724 3.981380 5.545285 -71.334332 -0.000000 0.000002 0.000000 2.343395 7.140153 -41.615605 3.989628 5.548050 -71.419634 -0.000000 -0.000000 -0.000001 2.340564 7.146600 -41.312160 3.983161 5.545882 -71.352732 -0.000000 -0.000002 0.000000 1.144760 -7.400145 12.089769 0.000000 0.000000 0.000000 2.794421 18.583895 60.286555 -0.000000 22.219837 0.000008 3.851656 -2.017857 0.124932 -5.113523 0.222616 -17.981468 16.974251 -29.891274 7.722255 -6.335523 -28.130462 -4.848425 -0.000003 -0.000003 0.000004 0.293263 -3.768018 14.855175 3.728254 -4.563792 78.482330 0.000000 0.000000 -0.000000 1.476679 -5.897275 31.989649 4.671016 -4.657153 90.170443 0.000000 -0.000000 -0.000001 1.455353 -5.842725 32.483908 4.654581 -4.657164 89.968071 0.000001 -0.000002 0.000000 1.449667 -5.891549 32.626390 4.654588 -4.657173 89.968194 -0.000001 -0.000001 0.000002 -10.424704 -4.040798 9.287916 16.858066 -0.662388 -1.812694 -7.007508 11.203834 -7.672830 -0.002046 0.000004 -0.000003 -0.000000 -0.000000 0.000000 -7.794544 -4.576063 -10.153101 14.610164 0.505584 -0.280551 -7.164475 -11.441779 9.325105 0.074546 0.000003 -0.000002 -0.000000 -0.000001 -0.000000 
2.371852 99.985359 0.388927 2.192176 -0.128756 -0.383444 2.733781 -0.230001 0.946461 3.162680 -0.145143 0.154605 0.000000 0.000000 0.000000 3.163292 -0.126561 0.150962 -3.268991 0.018849 -0.018577 -1.887781 -0.058102 0.630191 -0.000000 -0.000000 0.000000 0.717565 7.653005 -13.047678 0.000000 0.000000 0.000000 9.666111 -7.152678 -54.905490 -0.000004 -32.583213 -0.000008 5.924527 -1.655666 -5.127132 -3.935400 -5.157149 8.901444 21.369749 38.859132 0.033508 -0.468187 -2.423304 17.081246 -0.000000 0.000001 0.000001 1.240183 5.550746 -31.144652 2.582847 4.855853 -55.997005 -0.000000 0.000001 -0.000002 2.320330 7.123385 -41.324704 3.982379 5.545620 -71.344727 -0.000000 0.000001 0.000000 2.352919 7.147213 -41.729481 3.993344 5.549289 -71.458102 0.000000 0.000001 -0.000001 2.340563 7.146610 -41.312143 3.983161 5.545877 -71.352746 -0.000000 0.000003 -0.000000 1.162525 -7.068632 12.335783 0.000000 0.000000 0.000000 2.566466 18.497470 59.924207 -0.000001 21.753106 -0.000010 4.758065 -1.657848 0.624878 -5.113517 0.222623 -17.981474 16.974255 -29.891285 7.722270 -6.335555 -28.130462 -4.848466 -0.000003 -0.000001 0.000001 0.293265 -3.768017 14.855188 3.712102 -4.560475 78.279104 0.000000 -0.000001 0.000000 1.476684 -5.897263 31.989655 4.676902 -4.657129 90.243021 -0.000000 -0.000000 -0.000001 1.465064 -5.851516 32.639736 4.654580 -4.657166 89.968071 0.000001 -0.000001 -0.000001 1.458649 -5.905797 32.832183 4.654595 -4.657159 89.968194 0.000001 0.000002 0.000001 -11.294391 -3.664490 9.112343 17.896537 -0.936243 -1.919001 -7.513058 9.999833 -7.259815 0.002126 -0.000001 0.000001 -0.000000 -0.000000 -0.000000 -8.026256 -4.484811 -10.571451 14.698763 0.601924 -0.274243 -6.994032 -11.448780 9.740981 0.047632 0.000001 0.000001 -0.000000 -0.000003 -0.000000 
2.977746 99.868324 0.321497 2.262389 -0.223515 -0.408159 2.912397 -0.358551 0.934427 3.091726 -0.177317 0.145381 0.000000 0.000000 0.000000 3.092484 -0.159321 0.142335 -3.207297 0.027493 -0.017092 -1.723793 0.013694 0.708776 0.000000 -0.000000 0.000000 0.711822 7.316950 -13.046783 0.000000 0.000000 0.000000 9.411591 -7.394892 -55.143194 0.000005 -32.439266 -0.000001 6.617456 -1.698546 -5.365677 -3.935398 -5.157143 8.901472 21.369775 38.859115 0.033463 -0.468196 -2.423295 17.081277 0.000002 -0.000000 0.000002 1.240180 5.550751 -31.144631 2.582849 4.855847 -55.997009 -0.000000 -0.000001 -0.000002 2.320323 7.123387 -41.324704 3.983467 5.545980 -71.355902 0.000000 0.000002 0.000001 2.362586 7.154353 -41.844997 3.997107 5.550544 -71.497027 0.000000 -0.000001 0.000000 2.340556 7.146617 -41.312112 3.983156 5.545880 -71.352746 -0.000000 -0.000001 0.000000 1.177809 -6.730868 12.584602 0.000000 0.000000 0.000000 2.326433 18.419014 59.554352 -0.000004 21.274262 0.000011 5.670847 -1.275432 1.117579 -5.113520 0.222622 -17.981433 16.974248 -29.891274 7.722245 -6.335537 -28.130462 -4.848437 -0.000003 -0.000001 0.000000 0.293269 -3.768022 14.855192 3.695855 -4.557089 78.074834 -0.000000 -0.000002 0.000001 1.476685 -5.897269 31.989669 4.682969 -4.657099 90.317702 -0.000000 0.000002 -0.000001 1.474931 -5.860416 32.797769 4.654572 -4.657167 89.968058 -0.000001 -0.000001 -0.000003 1.467818 -5.920241 33.040825 4.654586 -4.657163 89.968208 0.000000 -0.000000 -0.000000 -12.137727 -3.291411 8.943529 18.882577 -1.180586 -2.027112 -7.970947 8.773374 -6.851656 0.005094 -0.000001 -0.000001 -0.000000 0.000000 0.000000 -8.251547 -4.390872 -10.990865 14.762545 0.693718 -0.268408 -6.803855 -11.454728 10.154845 0.011113 0.000002 -0.000000 0.000000 0.000002 0.000000 
